<?xml version="1.0" encoding="UTF-8" ?>
<!DOCTYPE svg PUBLIC "-//W3C//DTD SVG 1.1//EN" "http://www.w3.org/Graphics/SVG/1.1/DTD/svg11.dtd">
<svg width="466pt" height="468pt" viewBox="0 0 466 468" version="1.1" xmlns="http://www.w3.org/2000/svg">
<path fill="#fcfcfb" d=" M 0.00 0.00 L 466.00 0.00 L 466.00 468.00 L 0.00 468.00 L 0.00 0.00 Z" />
<path fill="#080808" d=" M 161.67 5.10 C 178.44 5.04 195.24 4.72 212.00 5.27 C 207.12 8.01 201.75 10.68 199.21 16.04 C 199.35 16.74 199.61 18.14 199.74 18.84 C 198.70 21.55 198.70 24.45 198.63 27.30 C 198.69 34.18 198.52 41.07 199.12 47.93 C 202.11 47.97 205.09 48.03 208.08 48.08 C 207.46 38.40 207.82 28.67 208.23 18.99 C 210.78 15.11 213.17 10.93 217.21 8.37 C 218.27 9.21 219.35 10.05 220.32 11.00 C 219.12 12.22 217.72 13.20 216.26 14.07 C 212.59 18.02 210.93 23.67 211.85 28.97 C 210.67 35.31 212.03 41.75 211.51 48.15 C 220.19 47.86 228.87 48.93 237.53 48.21 C 237.87 42.13 237.09 36.09 236.87 30.02 C 236.95 26.00 237.64 21.99 237.48 17.97 C 236.12 14.45 233.81 11.43 231.00 8.94 C 228.27 8.32 225.09 7.93 223.52 5.28 C 239.50 4.76 255.52 4.92 271.51 5.20 C 268.77 7.80 265.51 9.72 262.22 11.52 C 261.92 12.29 261.61 13.07 261.31 13.84 C 259.31 16.06 259.77 19.15 259.66 21.89 C 259.63 39.63 259.02 57.35 259.67 75.07 C 259.63 80.74 259.72 86.41 259.49 92.07 C 259.93 95.20 260.35 98.75 262.78 101.05 C 264.99 102.90 267.30 104.70 269.06 107.01 C 254.75 106.05 240.38 106.87 226.07 106.27 C 228.80 103.79 232.62 102.82 234.98 99.91 C 236.52 98.39 236.69 96.11 237.20 94.13 C 237.52 84.94 237.04 75.71 237.72 66.51 C 233.24 67.90 230.17 71.63 226.11 73.73 C 225.53 74.14 224.35 74.96 223.77 75.37 C 223.00 74.77 222.45 74.02 222.11 73.12 C 226.25 67.85 232.20 64.55 237.76 61.01 C 237.79 59.19 237.84 57.36 237.83 55.54 C 235.86 56.24 233.87 56.90 231.87 57.56 C 227.80 61.24 223.17 64.21 218.52 67.11 C 217.46 67.03 216.41 66.94 215.35 66.86 C 214.17 65.50 212.90 64.23 211.58 63.00 C 211.58 69.67 211.85 76.35 211.67 83.04 C 210.57 92.57 214.10 102.38 220.81 109.23 C 223.41 111.96 226.72 114.14 228.09 117.83 C 225.81 118.05 223.52 118.02 221.27 117.60 C 217.52 118.31 213.70 117.79 209.92 117.69 C 194.94 118.03 179.97 117.56 164.99 117.25 C 164.43 115.86 164.11 114.42 165.69 113.58 C 184.09 114.70 202.56 114.14 220.99 114.19 C 216.30 109.65 212.81 104.13 209.43 98.60 C 207.10 86.23 208.74 73.56 207.86 61.08 C 205.25 58.59 201.91 57.02 199.24 54.57 C 198.45 61.03 198.59 67.54 198.73 74.03 C 198.36 80.34 198.40 86.68 198.59 93.00 C 200.16 98.28 204.09 102.38 208.35 105.67 C 202.89 106.24 197.42 106.12 191.96 105.74 C 183.34 106.07 174.71 104.90 166.11 105.70 C 165.62 105.29 164.64 104.48 164.15 104.07 C 166.14 102.85 168.39 102.21 170.56 101.40 C 172.34 99.88 174.04 98.22 175.48 96.38 C 177.49 92.59 176.29 88.13 176.78 84.04 C 176.01 74.02 177.44 63.97 176.30 53.98 C 176.52 46.99 176.57 39.99 176.35 33.00 C 176.39 30.59 175.99 28.10 176.90 25.80 C 175.91 23.24 176.09 20.50 176.30 17.83 C 173.91 11.21 166.92 8.86 161.67 5.10 Z" />
<path fill="#080808" d=" M 268.57 20.48 C 268.77 15.38 272.71 11.37 276.92 8.97 C 279.87 9.30 279.27 12.94 277.19 14.07 C 274.67 15.59 272.33 17.96 272.19 21.07 C 271.82 30.71 271.60 40.37 272.14 50.00 C 272.25 53.67 271.15 57.28 271.53 60.94 C 272.09 68.99 272.06 77.08 271.46 85.12 C 271.25 90.17 272.14 95.23 273.95 99.94 C 275.03 104.59 279.08 107.55 281.73 111.28 C 283.27 113.63 285.98 115.08 286.85 117.89 C 267.93 118.28 249.01 117.62 230.10 118.04 C 230.16 116.92 230.22 115.79 230.29 114.67 C 236.17 113.58 242.16 115.08 248.06 114.05 C 258.70 114.71 269.49 115.15 280.16 114.31 C 276.78 110.81 273.33 107.23 271.53 102.61 C 267.68 94.29 268.54 84.94 268.14 76.04 C 268.36 73.38 268.30 70.72 268.11 68.06 C 267.44 66.07 268.05 64.01 268.23 61.99 C 268.67 58.00 267.41 54.00 268.25 50.03 C 268.62 40.19 267.66 30.31 268.57 20.48 Z" />
<path fill="#080808" d=" M 82.00 45.25 C 83.29 44.18 84.52 43.01 85.94 42.10 C 88.67 43.68 90.50 46.36 92.83 48.43 C 95.71 51.45 98.45 54.61 101.45 57.50 C 101.85 57.63 102.66 57.89 103.06 58.02 C 105.06 59.72 106.21 62.08 107.82 64.09 C 113.84 71.13 120.76 77.29 127.11 84.02 C 130.38 87.59 133.92 90.89 137.57 94.07 C 142.47 99.90 148.01 105.15 153.49 110.43 C 159.32 117.31 167.39 122.00 172.54 129.51 C 177.51 135.11 182.87 140.37 188.44 145.38 C 196.40 153.81 204.02 162.60 212.82 170.16 C 214.42 172.22 216.00 174.36 218.16 175.90 C 222.61 179.01 225.55 183.73 229.70 187.17 C 230.50 188.12 231.36 190.44 233.01 189.39 C 240.71 182.69 247.41 174.93 255.37 168.49 C 260.19 163.34 265.31 158.46 270.09 153.28 C 274.89 149.57 278.68 144.75 283.46 141.01 C 285.83 139.65 287.50 137.46 289.37 135.52 C 296.92 128.41 304.64 121.49 311.88 114.09 C 316.24 110.01 320.95 106.30 325.07 101.96 C 328.33 98.99 331.96 96.35 334.62 92.77 C 337.39 90.88 339.61 88.34 342.15 86.17 C 343.96 83.96 346.15 82.15 348.51 80.57 C 353.57 75.94 357.92 70.57 363.16 66.14 C 367.84 62.46 371.58 57.77 376.01 53.81 C 379.42 57.35 382.64 61.30 386.41 64.62 C 389.95 69.36 394.66 73.02 398.37 77.63 C 400.84 80.01 403.21 82.52 405.91 84.66 C 405.87 85.13 405.77 86.07 405.73 86.54 C 403.14 87.93 400.88 89.78 399.08 92.10 C 389.70 101.03 380.29 109.95 370.92 118.90 C 366.23 124.23 360.38 128.31 355.38 133.33 C 346.79 142.71 336.72 150.57 327.67 159.48 C 321.89 165.55 315.18 170.63 309.48 176.78 C 303.20 183.06 296.22 188.57 290.00 194.90 C 283.65 200.90 277.01 206.60 271.00 212.95 C 264.91 219.40 257.90 224.89 251.80 231.32 C 264.86 246.86 280.10 260.38 293.79 275.35 C 303.25 284.86 312.53 294.54 322.03 304.01 C 328.38 311.94 336.33 318.42 343.37 325.73 C 348.55 330.52 353.04 335.99 358.33 340.66 C 364.40 347.56 371.55 353.41 377.48 360.45 C 382.56 365.06 387.11 370.20 392.02 374.98 C 392.33 375.49 392.96 376.51 393.28 377.02 C 391.58 379.36 389.12 380.99 387.18 383.10 C 382.29 387.59 377.58 392.25 372.97 397.01 C 371.13 398.64 371.10 401.64 368.88 402.85 C 365.97 404.59 363.63 407.06 360.98 409.13 C 358.56 407.89 356.66 405.81 355.33 403.48 C 351.09 400.06 347.80 395.66 343.56 392.25 C 340.79 389.98 338.43 387.24 336.47 384.25 C 335.60 383.85 334.74 383.46 333.87 383.07 C 333.41 382.19 332.95 381.32 332.50 380.45 C 324.89 373.74 318.52 365.78 310.99 358.98 C 309.79 357.90 309.04 356.45 308.16 355.13 C 303.58 351.37 299.68 346.88 295.45 342.77 C 294.26 341.53 293.02 340.35 291.72 339.23 C 286.79 333.07 280.61 328.04 275.43 322.11 C 275.12 321.89 274.50 321.47 274.19 321.26 C 272.88 318.60 270.41 316.92 268.41 314.85 C 265.84 312.46 263.52 309.79 261.42 306.99 C 260.58 306.40 259.73 305.83 258.90 305.27 C 256.54 300.39 251.54 297.81 248.28 293.67 C 247.22 292.43 246.09 291.25 244.85 290.20 C 239.76 284.34 234.06 279.04 228.68 273.46 C 222.83 278.95 217.13 284.59 211.27 290.07 C 207.35 293.22 204.16 297.16 200.41 300.50 C 190.82 308.11 183.19 317.85 173.76 325.65 C 170.87 328.38 168.43 331.60 165.31 334.10 C 161.69 336.71 158.94 340.33 155.27 342.90 C 154.86 343.57 154.44 344.24 154.03 344.92 C 151.40 346.12 149.88 348.68 147.56 350.30 C 144.42 353.54 141.13 356.63 138.02 359.90 C 129.94 366.48 123.29 374.55 115.23 381.15 C 107.14 389.43 98.59 397.23 89.98 404.96 C 85.77 409.09 81.94 413.68 77.33 417.38 C 75.98 416.17 74.65 414.93 73.35 413.68 C 89.49 398.71 105.22 383.35 121.25 368.27 C 126.95 363.68 131.49 357.84 137.18 353.23 C 141.49 349.88 144.80 345.47 148.87 341.86 C 152.37 338.68 155.96 335.61 159.22 332.19 C 166.53 326.23 173.08 319.41 180.15 313.17 C 187.32 306.67 193.48 299.12 201.00 292.99 C 208.17 285.42 216.20 278.76 223.74 271.58 C 226.72 268.10 220.68 265.64 218.88 263.18 C 211.76 268.94 205.59 275.75 198.60 281.66 C 192.99 286.98 187.60 292.54 181.80 297.66 C 180.50 299.39 179.04 301.00 177.31 302.29 C 174.39 304.48 172.33 307.57 169.49 309.85 C 167.78 312.31 165.17 313.85 163.10 315.96 C 155.47 322.71 148.41 330.06 140.76 336.77 C 135.94 341.93 130.33 346.30 125.47 351.42 C 120.66 356.35 115.32 360.72 110.51 365.65 C 102.77 373.56 94.02 380.43 86.57 388.63 C 82.44 392.52 78.46 396.57 74.16 400.28 C 71.79 402.31 70.19 405.15 67.47 406.79 C 61.32 400.83 55.38 394.68 49.73 388.23 C 45.77 383.86 41.35 379.91 37.08 375.85 C 45.99 368.54 53.74 359.97 62.41 352.41 C 67.21 347.54 71.96 342.64 76.96 337.98 C 87.46 328.92 96.89 318.69 107.20 309.43 C 112.35 302.83 119.63 298.42 125.00 292.03 C 133.78 284.16 142.10 275.78 150.64 267.66 C 163.41 256.28 175.76 244.44 188.15 232.65 C 182.72 225.25 175.22 219.72 169.17 212.86 C 166.14 210.54 163.60 207.64 161.21 204.69 C 160.42 204.25 159.62 203.81 158.83 203.38 C 158.32 202.48 157.80 201.58 157.29 200.68 C 156.14 199.86 155.00 199.02 153.88 198.16 C 151.51 195.19 148.93 192.35 146.08 189.83 C 144.42 187.91 142.51 186.26 140.77 184.43 C 135.07 179.36 129.72 173.88 124.53 168.28 C 119.17 163.35 113.87 158.31 109.36 152.58 C 100.74 146.33 94.84 137.05 86.91 129.96 C 81.71 125.17 77.24 119.68 72.27 114.66 C 65.92 109.00 60.55 102.40 54.56 96.38 C 51.93 94.02 49.54 91.42 47.20 88.78 C 45.46 86.82 43.14 85.38 41.86 83.03 C 47.17 81.11 50.30 76.19 54.58 72.82 C 57.93 69.40 61.11 65.77 64.93 62.83 C 66.05 61.52 67.25 60.27 68.54 59.12 C 71.19 56.74 73.47 54.01 75.88 51.40 C 78.42 52.14 79.02 55.01 80.21 57.03 C 80.61 57.28 81.41 57.79 81.81 58.04 C 85.49 63.33 91.05 66.93 94.77 72.19 C 96.84 75.09 100.47 76.62 101.87 80.03 C 106.14 82.73 108.94 87.06 112.58 90.47 C 129.24 106.82 145.34 123.72 162.07 140.00 C 170.70 148.67 178.75 157.91 187.62 166.34 C 198.76 177.95 210.00 189.49 221.75 200.48 C 223.93 198.38 226.15 196.30 228.04 193.93 C 228.30 192.25 226.53 191.38 225.60 190.31 C 221.65 186.27 217.40 182.51 213.85 178.11 C 209.44 174.17 204.96 170.30 201.12 165.79 C 197.70 162.53 194.80 158.77 191.16 155.75 C 186.66 151.30 182.70 146.30 177.83 142.24 C 168.39 132.32 158.98 122.34 148.81 113.16 C 141.82 105.48 134.38 98.26 126.97 90.96 C 124.89 88.74 122.77 86.54 120.76 84.25 C 118.97 82.18 116.36 80.96 114.91 78.58 C 110.60 76.12 107.39 72.32 104.37 68.47 C 101.91 66.01 99.64 63.38 97.24 60.86 C 92.04 55.78 87.20 50.34 82.00 45.25 Z" />
<path fill="#080808" d=" M 385.87 47.23 C 386.90 46.92 387.94 46.61 388.98 46.32 C 391.55 50.85 395.68 54.14 398.74 58.31 C 400.87 59.77 402.59 61.73 404.32 63.64 C 408.89 68.43 413.86 72.82 418.67 77.35 C 420.91 80.68 423.75 83.52 426.64 86.28 C 426.68 86.60 426.78 87.24 426.82 87.56 C 417.17 96.32 407.50 105.06 398.00 113.99 C 396.80 115.35 395.44 116.55 393.92 117.52 C 389.14 124.12 382.25 128.71 376.48 134.36 C 372.35 137.55 369.45 141.99 365.38 145.25 C 360.80 148.72 356.39 152.48 352.75 156.95 C 344.72 163.08 338.02 170.67 330.72 177.60 C 325.31 181.05 321.57 186.58 316.19 190.14 C 310.20 197.20 302.59 202.58 296.21 209.25 C 288.50 216.60 280.58 223.73 272.72 230.91 C 273.52 233.12 275.49 234.46 277.10 236.06 C 283.44 242.52 290.02 248.75 296.05 255.51 C 296.54 255.79 297.52 256.35 298.00 256.63 C 301.40 261.57 306.60 264.93 310.35 269.60 C 316.39 275.60 322.39 281.62 328.16 287.88 C 334.89 293.74 340.90 300.36 347.37 306.50 C 355.28 316.50 365.39 324.46 373.65 334.13 C 380.96 340.93 387.90 348.13 394.53 355.59 C 401.57 362.19 408.13 369.28 414.94 376.12 C 415.08 378.15 412.46 379.08 411.20 380.35 C 408.25 383.44 404.66 385.91 402.45 389.64 C 398.37 391.63 396.02 395.75 392.60 398.59 C 388.00 402.37 384.10 406.90 379.62 410.78 C 377.16 413.15 374.73 415.57 372.24 417.90 C 371.36 417.42 370.50 416.93 369.63 416.46 C 369.35 415.99 368.80 415.06 368.52 414.59 C 369.85 412.56 371.68 410.96 373.49 409.38 C 376.05 406.65 378.48 403.74 381.52 401.53 C 384.98 397.90 388.56 394.38 392.40 391.16 C 392.61 390.76 393.01 389.97 393.21 389.57 C 396.72 386.03 400.68 382.92 403.84 379.05 C 404.74 378.45 405.64 377.86 406.55 377.26 C 406.05 376.15 405.56 375.04 405.09 373.93 C 401.17 371.21 398.56 367.10 394.79 364.21 C 390.93 360.36 387.69 355.94 383.56 352.36 C 380.49 349.72 378.48 346.12 375.30 343.58 C 369.36 336.86 362.46 331.08 356.70 324.20 C 353.26 320.39 349.61 316.79 346.27 312.91 C 337.42 304.67 329.26 295.74 320.42 287.49 C 313.12 279.87 305.47 272.58 298.35 264.79 C 291.70 258.72 286.05 251.69 279.37 245.67 C 275.14 240.64 269.70 236.66 266.10 231.14 C 271.02 226.42 275.49 221.22 280.85 216.98 C 286.02 212.54 290.67 207.54 295.49 202.73 C 298.92 200.14 302.06 197.21 304.95 194.03 C 311.60 188.00 317.91 181.58 324.81 175.81 C 333.77 168.54 341.28 159.70 350.10 152.26 C 357.99 144.41 366.44 137.12 374.07 129.02 C 381.21 123.53 387.02 116.61 393.65 110.55 C 397.23 106.59 401.65 103.50 405.19 99.50 C 407.78 97.34 410.34 95.10 412.25 92.29 C 413.83 91.29 415.30 90.12 416.43 88.62 C 417.71 87.86 418.90 86.97 420.04 86.01 C 417.40 83.95 414.97 81.66 412.56 79.35 C 410.46 77.37 409.07 74.66 406.48 73.22 C 402.75 68.44 398.20 64.41 394.07 60.00 C 391.50 56.62 388.37 53.76 385.29 50.88 C 385.46 49.66 385.65 48.44 385.87 47.23 Z" />
<path fill="#080808" d=" M 8.49 186.18 C 9.57 182.53 10.31 178.79 10.66 174.99 C 35.46 175.02 60.27 174.97 85.07 175.03 C 87.08 175.09 89.08 175.39 91.09 175.48 C 91.44 179.31 92.27 183.07 92.69 186.89 C 93.16 193.27 95.50 199.35 95.43 205.80 C 94.77 205.47 94.14 205.11 93.54 204.70 C 90.09 200.44 85.88 196.87 82.51 192.54 C 79.64 192.95 76.74 193.02 73.87 193.48 C 75.20 204.96 73.91 216.50 74.33 228.01 C 73.81 233.00 75.25 238.02 74.04 242.96 C 74.15 243.39 74.37 244.24 74.48 244.66 C 73.82 254.07 73.92 263.79 77.32 272.71 C 79.69 278.11 83.61 282.47 87.51 286.80 C 87.97 287.18 88.89 287.93 89.35 288.31 C 88.31 288.84 87.22 289.07 86.05 289.01 C 66.62 289.00 47.19 288.99 27.76 289.01 C 27.02 287.41 28.09 285.73 29.93 286.01 C 47.17 286.05 64.41 285.86 81.64 286.19 C 76.89 279.20 72.86 271.46 71.71 262.98 C 70.89 252.02 71.33 241.02 71.04 230.05 C 71.61 216.81 70.55 203.52 71.30 190.30 C 73.89 190.15 76.49 190.05 79.05 189.60 C 77.53 186.66 75.03 184.31 72.08 182.85 C 68.64 182.68 65.20 182.95 61.77 182.61 C 61.26 188.39 61.82 194.19 61.93 199.97 C 60.62 216.96 61.70 234.01 61.56 251.02 C 62.06 256.05 60.61 261.23 62.29 266.13 C 63.75 270.40 67.17 273.49 69.91 276.94 C 55.64 277.01 41.38 276.68 27.11 276.99 C 33.18 274.05 39.25 269.27 39.92 262.05 C 40.76 239.04 39.97 216.00 40.22 192.99 C 38.35 192.92 36.47 192.86 34.59 192.95 C 27.18 199.74 20.08 206.88 12.49 213.45 C 10.86 214.81 9.71 212.49 9.22 211.21 C 13.32 208.37 17.11 205.09 20.50 201.44 C 24.53 197.22 29.24 193.69 33.06 189.26 C 35.34 189.28 38.19 190.66 40.12 189.00 C 40.56 186.79 40.46 184.52 40.50 182.28 C 36.33 182.60 32.14 182.68 27.98 183.23 C 23.16 187.34 18.78 191.93 14.15 196.25 C 10.55 199.01 7.92 202.71 5.03 206.14 C 1.89 205.11 4.87 202.29 5.53 200.44 C 6.85 195.77 7.89 191.00 8.49 186.18 Z" />
<path fill="#080808" d=" M 99.79 180.49 C 100.19 179.52 100.59 178.55 101.00 177.59 C 102.46 178.52 104.27 179.48 104.40 181.44 C 105.63 191.74 107.38 201.95 108.27 212.29 C 107.38 212.93 106.50 213.59 105.54 214.12 C 103.81 207.89 103.98 201.35 102.42 195.09 C 101.11 190.28 101.85 185.10 99.79 180.49 Z" />
<path fill="#080808" d=" M 334.67 178.14 C 349.21 177.90 363.76 177.93 378.30 178.12 C 372.53 180.86 367.83 186.45 367.10 192.93 C 367.29 203.75 367.36 214.58 366.95 225.40 C 369.95 225.28 372.95 225.49 375.95 225.60 C 376.55 215.75 375.96 205.83 376.11 195.95 C 375.97 190.73 379.55 186.43 382.84 182.76 C 384.66 181.17 387.24 182.56 385.90 185.00 C 383.17 187.28 380.42 189.86 379.63 193.49 C 379.05 204.01 379.77 214.57 379.18 225.10 C 386.77 225.60 394.38 224.96 401.97 225.47 C 403.48 225.35 406.33 226.18 406.50 223.89 C 407.15 217.63 406.27 211.34 406.54 205.07 C 405.95 199.07 407.37 193.03 406.08 187.09 C 405.28 186.08 404.50 185.06 403.74 184.03 C 400.85 181.92 397.45 180.77 394.46 178.85 C 395.91 178.25 397.43 177.96 399.01 177.99 C 411.66 178.00 424.30 178.02 436.95 177.98 C 438.84 177.95 440.74 178.09 442.60 178.51 C 439.35 180.56 435.56 181.69 432.84 184.55 C 430.36 188.25 428.12 192.47 428.49 197.08 C 428.86 218.71 428.45 240.32 428.29 261.95 C 427.32 269.13 432.39 275.45 437.78 279.62 C 434.30 282.33 429.95 279.82 426.02 280.09 C 416.96 280.46 407.91 279.65 398.86 280.21 C 397.76 280.34 395.33 280.29 396.16 278.47 C 398.30 276.58 400.94 275.35 403.11 273.51 C 404.94 269.96 407.13 266.14 406.52 262.00 C 405.86 256.09 407.26 250.13 406.11 244.24 C 404.20 245.65 402.28 247.05 400.60 248.74 C 397.63 250.76 395.26 253.60 391.99 255.18 C 391.34 254.50 390.72 253.79 390.15 253.06 C 394.57 248.33 399.93 244.58 405.36 241.10 C 406.59 238.29 406.58 235.22 406.13 232.24 C 400.26 236.63 393.83 240.41 388.82 245.83 C 388.00 246.66 387.04 247.26 385.94 247.63 C 383.52 245.90 382.01 243.15 379.34 241.70 C 379.99 252.08 379.24 262.61 381.08 272.88 C 381.59 277.77 385.46 281.09 387.82 285.12 C 389.77 286.02 391.25 287.56 392.75 289.05 C 393.30 290.03 393.86 291.01 394.43 292.00 C 375.34 291.96 356.24 292.14 337.18 290.83 C 337.47 290.20 338.06 288.96 338.35 288.34 C 354.36 288.83 370.40 288.01 386.42 288.43 C 382.85 284.92 379.92 280.72 378.11 276.03 C 375.63 269.22 376.60 261.90 375.98 254.83 C 376.70 249.91 376.32 244.95 376.09 240.01 C 373.69 236.91 370.24 234.75 367.28 232.20 C 366.98 244.76 366.43 257.38 367.32 269.93 C 369.81 273.57 372.79 276.86 375.63 280.22 C 361.99 279.19 348.24 278.92 334.55 279.32 C 335.78 276.53 339.32 276.32 341.20 274.13 C 343.45 271.75 345.95 269.00 345.87 265.50 C 345.33 250.97 346.13 236.43 345.54 221.91 C 345.10 217.59 345.33 213.23 345.87 208.93 C 345.12 202.95 345.86 196.92 346.12 190.93 C 346.25 187.49 344.97 183.45 341.37 182.29 C 341.09 181.86 340.54 181.00 340.26 180.57 C 338.41 179.73 336.53 178.93 334.67 178.14 Z" />
<path fill="#080808" d=" M 444.89 182.78 C 445.88 181.42 449.17 182.20 448.18 184.13 C 447.15 186.85 445.58 189.41 443.38 191.34 C 441.17 196.61 442.21 202.35 442.08 207.88 C 442.55 226.82 442.33 245.78 442.11 264.73 C 443.15 270.82 445.19 276.96 449.19 281.77 C 451.47 285.20 453.93 289.00 458.00 290.45 C 458.26 290.82 458.79 291.56 459.05 291.93 C 439.08 292.10 419.11 291.95 399.14 292.00 C 398.89 291.16 398.64 290.33 398.39 289.50 C 398.83 289.32 399.71 288.95 400.14 288.77 C 411.96 288.22 424.06 288.85 435.99 288.73 C 440.53 288.51 445.24 289.71 449.60 287.92 C 444.80 281.98 439.69 275.81 438.37 268.04 C 437.99 262.73 438.29 257.42 438.47 252.11 C 437.69 244.11 438.86 236.06 437.89 228.07 C 437.55 219.22 437.84 210.38 438.28 201.55 C 438.06 201.16 437.62 200.37 437.41 199.98 C 437.67 199.54 438.21 198.67 438.48 198.23 C 436.99 192.24 441.26 187.03 444.89 182.78 Z" />
<path fill="#080808" d=" M 228.74 307.27 C 229.61 307.66 230.81 307.59 231.42 308.44 C 238.06 317.43 246.09 325.29 252.92 334.08 C 256.82 337.97 259.67 342.81 263.99 346.29 C 265.64 347.67 263.85 349.83 262.65 350.86 C 260.66 353.76 257.89 355.99 255.13 358.11 C 252.63 361.01 249.74 363.52 247.05 366.23 C 246.79 366.67 246.27 367.56 246.01 368.00 C 244.18 368.81 241.36 370.49 243.10 372.82 C 246.48 376.51 250.14 379.94 253.44 383.72 C 258.45 381.48 263.60 379.45 269.07 378.70 C 271.85 378.02 274.37 379.73 277.03 380.22 C 280.82 380.94 282.73 384.74 283.74 388.10 C 282.70 391.82 279.95 395.74 275.80 396.10 C 273.48 396.10 271.21 395.47 268.90 395.43 C 263.51 395.28 259.17 398.95 254.51 401.09 C 255.73 405.15 259.71 407.35 262.16 410.60 C 265.07 414.49 269.09 417.73 273.98 418.59 C 276.77 418.82 279.08 417.23 281.27 415.76 C 278.39 413.90 274.84 413.04 272.52 410.39 C 270.74 408.53 269.09 406.54 267.54 404.50 C 268.01 403.64 268.51 402.79 269.04 401.96 C 272.32 400.54 275.71 401.42 278.99 402.28 C 283.77 403.69 288.60 398.97 288.22 394.31 C 288.36 392.99 287.37 391.19 289.03 390.46 C 292.15 392.02 291.12 396.14 290.54 398.89 C 289.59 403.18 285.09 405.32 281.03 405.32 C 277.88 405.74 274.98 403.57 271.82 404.40 C 274.62 408.40 278.02 412.53 283.14 413.35 C 285.07 412.66 286.84 410.52 288.96 410.98 C 292.81 413.06 290.87 418.15 289.02 421.02 C 285.75 425.55 283.50 430.66 281.42 435.82 C 280.77 437.59 279.36 438.90 278.13 440.27 C 274.65 440.22 271.06 439.83 268.03 437.96 C 262.50 434.29 256.78 430.38 253.44 424.47 C 250.87 419.93 246.20 417.07 243.97 412.31 C 240.59 415.25 237.71 418.77 235.46 422.65 C 230.16 427.52 227.78 434.67 223.11 440.05 C 220.28 442.67 218.70 446.35 215.65 448.76 C 214.25 450.68 212.74 452.55 210.82 453.97 C 207.77 450.74 205.75 446.65 202.32 443.77 C 199.51 439.95 196.49 436.28 193.08 432.97 C 186.53 424.22 178.44 416.71 172.25 407.68 C 170.03 406.51 167.75 405.45 165.41 404.55 C 162.60 403.26 159.35 407.21 156.87 405.12 C 157.20 403.82 157.63 402.55 158.03 401.28 C 160.62 399.13 163.48 397.18 166.94 396.90 C 170.67 395.94 174.38 397.33 178.10 397.55 C 180.56 395.76 182.39 393.26 184.43 391.03 C 186.11 389.87 187.51 388.40 188.85 386.87 C 192.56 382.26 197.25 378.62 201.27 374.31 C 203.12 372.87 204.70 371.13 206.37 369.49 C 202.75 364.20 197.54 360.32 193.88 355.08 C 191.11 351.83 187.99 348.89 185.10 345.75 C 192.05 338.48 198.67 330.88 206.19 324.17 C 209.29 320.55 213.20 317.65 215.78 313.60 C 216.30 312.85 217.69 310.90 218.52 312.44 C 228.19 324.76 238.80 336.42 249.13 348.08 C 249.32 350.17 245.77 350.00 244.65 351.59 C 238.54 357.78 232.00 363.57 226.25 370.14 C 232.05 376.98 238.18 383.53 244.03 390.32 C 246.17 388.79 248.20 387.10 250.06 385.24 C 246.38 380.35 242.13 375.93 238.23 371.23 C 241.47 367.13 244.97 363.24 248.72 359.60 C 252.40 355.41 256.79 351.88 260.74 347.93 C 255.18 340.69 248.54 334.35 243.18 326.95 C 239.58 322.80 236.12 318.47 232.09 314.74 C 231.82 314.26 231.27 313.29 230.99 312.81 C 230.44 312.60 229.34 312.18 228.78 311.97 C 228.75 310.40 228.74 308.83 228.74 307.27 Z" />
<path fill="#fcfcfb" d=" M 214.95 335.85 C 215.83 334.70 217.93 334.79 218.65 336.07 C 221.47 339.63 224.60 342.95 227.75 346.23 C 227.65 348.44 225.36 349.51 224.16 351.13 C 221.98 353.90 219.45 356.36 216.59 358.44 C 212.57 354.19 208.07 350.43 204.13 346.11 C 207.90 342.87 211.64 339.56 214.95 335.85 Z" />
<path fill="#fcfcfb" d=" M 196.54 400.30 C 202.29 393.70 208.57 387.56 215.02 381.68 C 217.91 382.28 219.51 385.84 221.85 387.70 C 216.02 393.52 209.69 398.79 204.37 405.10 C 209.02 409.65 213.53 414.33 218.07 418.99 C 216.61 421.52 214.52 423.60 212.66 425.82 C 208.86 422.79 206.27 418.62 202.82 415.26 C 200.59 410.21 195.70 407.50 192.26 403.46 C 193.60 402.28 195.03 401.23 196.54 400.30 Z" />
<path fill="#fcfcfb" d=" M 210.02 404.01 C 214.59 399.30 220.12 395.53 223.89 390.07 C 226.16 392.42 228.25 394.94 230.65 397.18 C 231.55 398.22 232.44 399.26 233.35 400.31 C 228.60 405.05 224.62 410.39 220.57 415.71 C 220.24 415.77 219.60 415.91 219.27 415.97 C 216.72 413.01 214.20 410.02 211.52 407.18 C 210.81 406.25 209.45 405.36 210.02 404.01 Z" />
<path fill="#080808" d=" M 295.53 412.66 C 297.13 412.24 299.10 410.98 300.51 412.52 C 301.47 415.96 301.93 419.90 300.04 423.14 C 296.10 430.66 291.36 437.83 288.87 446.01 C 287.88 448.44 283.16 448.31 283.99 444.99 C 289.10 436.34 292.88 427.01 297.39 418.06 C 296.75 416.26 296.14 414.46 295.53 412.66 Z" />
<path fill="#080808" d=" M 238.75 431.94 C 242.17 427.96 244.96 422.22 250.46 421.06 C 250.14 424.80 247.33 427.43 245.11 430.17 C 243.11 432.38 241.59 434.96 239.93 437.42 C 237.36 439.81 236.38 443.38 234.19 446.09 C 230.72 451.65 225.70 456.05 222.43 461.76 C 220.82 462.22 219.15 463.30 217.45 462.56 C 215.54 461.13 216.35 458.29 218.26 457.30 C 221.93 454.93 224.05 451.07 226.92 447.91 C 231.33 442.94 234.03 436.66 238.75 431.94 Z" />
</svg>
